<svg width="14" height="9" fill="none" xmlns="http://www.w3.org/2000/svg"><path d="M13.336 3.938c.094.187.164.374.164.562 0 .21-.07.398-.164.563a7.442 7.442 0 01-2.742 2.718c-1.172.703-2.461 1.032-3.844 1.032-1.406 0-2.672-.329-3.844-1.032A7.109 7.109 0 01.164 5.063.934.934 0 010 4.5c0-.188.047-.375.164-.563A7.444 7.444 0 012.906 1.22 7.495 7.495 0 016.75.187c1.383 0 2.672.352 3.844 1.032a7.812 7.812 0 012.742 2.718zM6.75 7.688a3.18 3.18 0 001.594-.422 3.24 3.24 0 001.148-1.172A3.074 3.074 0 009.937 4.5c0-.563-.164-1.102-.445-1.594a3.366 3.366 0 00-1.148-1.148 3.204 3.204 0 00-1.594-.446c-.586 0-1.125.165-1.594.446a3.24 3.24 0 00-1.172 1.148A3.18 3.18 0 003.563 4.5c0 .586.14 1.125.421 1.594.282.492.68.89 1.172 1.172a3.057 3.057 0 001.594.421zM9.188 4.5c0-.656-.258-1.242-.727-1.71-.469-.47-1.055-.728-1.711-.728a2.38 2.38 0 00-1.148.282c.28 0 .515.117.703.304a.974.974 0 01.304.704c0 .28-.117.539-.304.726a.954.954 0 01-.703.281c-.282 0-.54-.093-.727-.28a1.008 1.008 0 01-.281-.727c-.188.375-.282.75-.282 1.148 0 .68.235 1.266.704 1.734.468.47 1.054.704 1.734.704a2.35 2.35 0 001.71-.704A2.39 2.39 0 009.188 4.5z" fill="#fff"/></svg>