<svg width="378" height="89" fill="none" xmlns="http://www.w3.org/2000/svg"><g filter="url(#filter0_d)" fill="#F7AB32"><path d="M12.216 20.969H4V1h21.91v7.488H12.216v12.48zm13.831 52.487V81H4.299V60.882h8.155v12.574h13.593zm339.628-12.55h8.216v19.97h-21.91v-7.49h13.694v-12.48zM352.061 8.469V.925h21.747v20.118h-8.155V8.469h-13.592z"/></g><path d="M207.873 35.9l.689-.68h6.2l.688.68.414 1.089-9.713 23.336-.62.613h-8.06L207.873 35.9zm10.333 4.559l4.684 12.246h-.138l3.652-31.025.619-.68h7.991l.62.68-4.822 38.645-.689.613h-11.71l-.62-.613-3.72-9.865 4.133-10.002zM187.62 21h7.991l.62.68 3.031 25.854-5.649 13.404h-1.171l-.62-.613L187 21.68l.62-.68zm60.711 0l-.62.68L236 60.325l.689.613h8.129l.62-.613L256.597 21h-8.266zm15.775.68l-.62-.68h-3.307l-2.411 8.777 4.134 15.036h-8.405l-2.411 8.232h13.089l1.998 7.28.62.613h8.404l.62-.613-11.711-38.645zM111 21.68v38.645l.62.613h7.991l.62-.613V21h-8.611l-.62.68zm169 0v38.645l.62.613h7.991l.62-.613V21h-8.611l-.62.68zM127.326 50.46l5.787 9.865.895.612h9.369l.482-.612-6.131-10.41c-1.86.477-3.651.613-5.235.613h-5.167v-.068zm169 0l5.787 9.865.895.612h9.369l.482-.612-6.131-10.41c-1.86.477-3.651.613-5.235.613h-5.167v-.068zM146.477 34.267c0-7.212-5.029-13.199-15.155-13.199h-7.578v8.369h8.129c3.444 0 5.304 2.245 5.304 4.83 0 2.586-1.86 4.899-5.304 4.899h-8.129v8.3h8.404c2.687 0 5.511-.272 8.749-2.449 3.789-2.585 5.58-6.327 5.58-10.75zm169 0c0-7.212-5.029-13.199-15.155-13.199h-7.578v8.369h8.129c3.444 0 5.304 2.245 5.304 4.83 0 2.586-1.86 4.899-5.304 4.899h-8.129v8.3h8.404c2.687 0 5.511-.272 8.749-2.449 3.789-2.585 5.58-6.327 5.58-10.75zM59.686 21h-7.991l-.689.68v38.645l.689.613h7.99l.62-.613V21.68l-.62-.68zM35.3 36.58v-14.9l-.69-.68h-7.92l-.689.68v38.645l.689.613h7.922l.689-.613V45.357h12.193V36.58H35.3zm298.513-6.803h17.911l.62-.68V21.68l-.62-.68h-17.911v8.777zm0 15.376h12.744l.62-.612v-7.144l-.62-.613h-12.744v8.369zM330.3 21h-8.611l-.689.68v38.645l.689.613h8.611V21zm21.493 31.16h-17.98v8.778h17.98l.688-.613v-7.484l-.688-.68zM160.231 21h-8.611l-.62.68v38.645l.62.613h8.611V21zm7.509 0h-3.927v8.3h3.927c3.926 0 6.613 2.178 6.613 5.852v11.702c0 3.674-2.687 5.851-6.613 5.851h-3.927v8.233h3.927c8.955 0 15.844-4.015 15.844-13.132V34.132c0-9.117-6.889-13.131-15.844-13.131zm-89.41 0l-.62.68L66 60.325l.689.613h8.129l.62-.613L86.598 21H78.33zm15.845.68l-.689-.68h-3.238l-2.48 8.777 4.134 15.036h-8.405l-2.342 8.232h13.02l1.998 7.28.62.613h8.404l.62-.613L94.175 21.68z" fill="#fff"/><defs><filter id="filter0_d" x="0" y=".925" width="378" height="88.075" filterUnits="userSpaceOnUse" color-interpolation-filters="sRGB"><feFlood flood-opacity="0" result="BackgroundImageFix"/><feColorMatrix in="SourceAlpha" values="0 0 0 0 0 0 0 0 0 0 0 0 0 0 0 0 0 0 127 0"/><feOffset dy="4"/><feGaussianBlur stdDeviation="2"/><feColorMatrix values="0 0 0 0 0 0 0 0 0 0 0 0 0 0 0 0 0 0 0.25 0"/><feBlend in2="BackgroundImageFix" result="effect1_dropShadow"/><feBlend in="SourceGraphic" in2="effect1_dropShadow" result="shape"/></filter></defs></svg>