<svg width="15" height="11" fill="none" xmlns="http://www.w3.org/2000/svg"><path d="M14.5 5.125c0-.89-.305-1.688-.914-2.438-.61-.75-1.43-1.335-2.461-1.78A8.838 8.838 0 007.75.25a8.838 8.838 0 00-3.375.656c-1.031.446-1.852 1.031-2.46 1.781C1.304 3.438 1 4.234 1 5.126c0 .563.117 1.078.352 1.57.234.516.585.961 1.03 1.383a4.564 4.564 0 01-.445 1.383c-.14.21-.328.445-.609.68l-.187.164c-.118.117-.164.21-.141.258 0 .07.047.117.094.14.047.047.117.047.187.047A6.221 6.221 0 004.61 9.437 8.686 8.686 0 007.75 10c1.219 0 2.344-.21 3.375-.656 1.031-.422 1.852-1.008 2.46-1.758.61-.75.915-1.57.915-2.461z" fill="#fff"/></svg>