<svg width="14" height="12" viewBox="0 0 14 12" fill="none" xmlns="http://www.w3.org/2000/svg">
<path d="M13.9815 3.21162C13.9534 3.13693 13.8952 3.07744 13.8212 3.04755L12.5772 2.54565C12.4999 2.14377 12.1946 1.8219 11.8018 1.72043L11.7347 0.947409C11.7249 0.834293 11.649 0.73774 11.5414 0.701474C11.4338 0.665238 11.3149 0.696175 11.2387 0.78029L10.9194 1.13246L10.722 0.441831C10.688 0.322782 10.5812 0.239207 10.4574 0.234923C10.3329 0.230513 10.2212 0.306569 10.179 0.423016L8.70458 4.49058C8.70458 4.49058 3.24308 4.74552 3.24079 4.74565C2.12087 4.81295 1.05987 4.2137 0.538488 3.21886C0.465225 3.07919 0.292648 3.02525 0.153006 3.09848C0.0133016 3.17171 -0.0405751 3.34429 0.0326248 3.48396C0.498731 4.37334 1.32427 4.99904 2.27085 5.22686C2.17259 5.34137 1.96146 5.62519 1.838 6.0714C1.70375 6.55658 1.65537 7.33002 2.14898 8.31211L1.34838 9.39954C1.30161 9.46303 1.28321 9.54305 1.29752 9.62063L1.64988 11.5313C1.67485 11.6667 1.79298 11.7651 1.93071 11.7651H2.28964C2.37432 11.7651 2.45463 11.7275 2.50892 11.6625C2.56318 11.5974 2.58577 11.5117 2.5706 11.4284L2.34748 10.2028L4.70819 8.43058C4.71234 8.42744 4.70419 8.43398 4.70819 8.43058C4.93391 8.241 5.09776 8.03219 5.21497 7.81751C6.44534 8.03352 8.12913 8.32581 9.20835 8.49963L9.68384 11.5239C9.70571 11.6628 9.82536 11.7651 9.96595 11.7651H10.2613C10.419 11.7651 10.5469 11.6373 10.5469 11.4795V8.40958C10.8149 8.2265 10.9108 7.92031 10.9743 7.62044C10.9763 7.61101 11.6096 4.68812 11.6096 4.68812C11.729 4.70802 11.8495 4.71846 11.9709 4.71846C12.8072 4.71846 13.573 4.22884 13.9695 3.44068C14.0053 3.36941 14.0097 3.28635 13.9815 3.21162Z" fill="white"/>
</svg>
